<?xml version="1.0" encoding="UTF-8" standalone="no"?>
<svg
   xmlns:dc="http://purl.org/dc/elements/1.1/"
   xmlns:cc="http://creativecommons.org/ns#"
   xmlns:rdf="http://www.w3.org/1999/02/22-rdf-syntax-ns#"
   xmlns:svg="http://www.w3.org/2000/svg"
   xmlns="http://www.w3.org/2000/svg"
   xmlns:sodipodi="http://sodipodi.sourceforge.net/DTD/sodipodi-0.dtd"
   xmlns:inkscape="http://www.inkscape.org/namespaces/inkscape"
   inkscape:version="1.0 (4035a4fb49, 2020-05-01)"
   sodipodi:docname="87.svg"
   id="svg120"
   version="1.1"
   fill="none"
   viewBox="0 0 300.00009 296.74103"
   height="296.74103"
   width="300.00009">
  <metadata
     id="metadata126">
    <rdf:RDF>
      <cc:Work
         rdf:about="">
        <dc:format>image/svg+xml</dc:format>
        <dc:type
           rdf:resource="http://purl.org/dc/dcmitype/StillImage" />
      </cc:Work>
    </rdf:RDF>
  </metadata>
  <defs
     id="defs124" />
  <sodipodi:namedview
     inkscape:current-layer="svg120"
     inkscape:window-maximized="1"
     inkscape:window-y="-8"
     inkscape:window-x="-8"
     inkscape:cy="148.00002"
     inkscape:cx="149.99998"
     inkscape:zoom="2.4285714"
     showgrid="false"
     id="namedview122"
     inkscape:window-height="1017"
     inkscape:window-width="1920"
     inkscape:pageshadow="2"
     inkscape:pageopacity="0"
     guidetolerance="10"
     gridtolerance="10"
     objecttolerance="10"
     borderopacity="1"
     bordercolor="#666666"
     pagecolor="#ffffff" />
  <path
     id="path2"
     fill="#231f20"
     d="m 117.36498,292.53702 c -24.326002,-5.106 -45.248202,-15.817 -61.966102,-31.434 -16.5177,-15.416 -28.6307,-35.438 -35.1376,-59.464 -5.8062,-21.523 -6.7072,-44.647 -4.605,-67.672 2.1023,-22.824 7.2078,-45.449005 13.5145,-66.170805 0.6006,-1.902 1.1012,-2.4026 1.0011,-2.6028 -0.1001,-0.4004 -0.4005,0.4005 -1.9021,-0.1001 -4.9052,-1.7018 -7.9084,-4.9052 -9.7104,-8.7093 -1.8019,-4.0043 -1.902,-8.7093 -0.8008,-13.2141 l 6.0064,-24.7265 v -0.3003 l 0.1001,-0.3004 c 1.5016,-4.4047 4.4047,-7.8083 8.2088,-9.9105999 3.6039,-1.902 8.1087,-2.6027 12.8137,-1.5016 l 42.1454,8.9095999 5.706,1.2013 -0.601,5.8062 -0.3,4.2045 -0.601,8.1086 -3.504,-0.8008 0.301,25.7275 H 213.66798 l -0.1,-25.7275 -4.304,1.1012 -0.301,-8.3089 -0.1,-4.2045 -0.1,-5.606 5.406,-1.1012 42.946,-9.2098999 c 4.705,-1.1011 9.009,-0.4004 12.814,1.5016 3.704,2.1022999 6.707,5.4057999 8.208,9.9106999 l 0.1,0.3003 v 0.3003 l 6.007,24.7265 c 1.101,4.4047 1.001,9.2098 -0.801,13.2141 -1.802,4.0043 -4.905,7.1076 -9.71,8.7093 -1.502,0.6007 -1.702,-0.4004 -1.902,0.1001 -0.101,0.3004 0.4,0.7008 1.001,2.6028 6.206,20.7227 11.212,43.346705 13.514,66.170705 2.202,23.025 1.201,46.25 -4.605,67.673 -6.507,23.925 -18.62,44.047 -35.137,59.463 -16.718,15.617 -37.841,26.429 -61.967,31.434 -6.507,1.401 -12.413,2.402 -17.819,3.103 -5.406,0.701 -10.711,1.001 -16.117,1.001 h -0.1 c -5.406,0 -10.612,-0.3 -16.117,-1.001 -4.706,-0.701 -10.412,-1.802 -17.119,-3.203 z" />
  <path
     id="path4"
     fill="#ffca05"
     d="m 247.20398,165.50102 c 2.203,0 4.005,1.802 4.005,4.004 0,2.203 -1.802,4.004 -4.005,4.004 -2.202,0 -4.004,-1.801 -4.004,-4.004 -0.1,-2.202 1.702,-4.004 4.004,-4.004 z m -128.437,120.529 c 12.613,2.603 22.524,3.904 32.535,3.904 h 0.1 c 10.01,0 19.921,-1.201 32.535,-3.904 45.849,-9.61 79.485,-40.343 91.998,-86.192 11.212,-41.445 3.504,-89.496 -8.91,-130.239805 -2.102,-6.7071 -1.701,-8.6092 5.106,-11.0117 6.106,-2.1023 7.508,-8.1087 6.106,-14.015 l -6.006,-24.7265 c -1.902,-5.606 -6.907,-8.5091 -13.114,-6.9074 l -38.541,8.2088 v 4.0043 c 12.914,-3.1034 26.028,-5.7061 39.042,-8.1087 4.905,-1.2013 7.407,0.7007 8.609,4.2045 2.102,8.6092 4.004,16.2173 6.106,24.9267 1.101,3.5037 0.1,7.1076 -3.503,8.5091 -9.31,3.1033 -10.612,7.1076 -8.109,15.8169 11.913,40.342805 19.921,87.593805 8.909,128.337805 -11.912,44.247 -44.647,73.779 -88.795,83.089 -12.113,2.502 -21.823,3.704 -31.734,3.704 h -0.1 c -9.71,0 -19.621,-1.202 -31.734,-3.704 -44.347102,-9.31 -76.882002,-38.942 -88.794702,-83.089 -11.0118,-40.744 -3.1033,-87.995 8.9095,-128.337805 2.6028,-8.7093 1.2013,-12.8137 -8.1087,-15.8169 -3.6038,-1.4015 -4.6049,-5.0054 -3.5037,-8.5091 2.1022,-8.6092 4.0043,-16.2174 6.1065,-24.9267 1.1012,-3.5038 3.704,-5.4058 8.6092,-4.2045 12.9139,2.4026 25.8277,4.9052 38.6419,7.9085 l -0.101,-4.0043 -37.9402,-8.1087 c -6.1065,-1.4015 -11.1119,1.5016 -13.114,6.9074 l -6.0065,24.7264 c -1.4015,5.8063 0,11.9128 6.1066,14.0151 6.9074,2.4025 7.2077,4.3046 5.1054,11.0117 -12.2131,40.843905 -20.1215,88.794905 -8.9095,130.239905 13.0139,45.849 46.6499,76.682 92.499202,86.292 z m 35.738,-3.103 c 16.418,-0.701 37.14,-4.405 51.155,-10.712 81.988,-36.639 77.182,-130.64 54.658,-201.015005 -2.803,-11.0118 -2.803,-14.7158 9.711,-19.621 1.802,-0.7008 2.402,-2.4026 1.501,-4.4048 l -5.806,-24.326 c -0.801,-2.5027 -2.603,-3.2034 -5.005,-2.5027 -13.515,2.2024 -26.829,4.9053 -40.043,8.3089 l 0.1,30.833 V 182.51902 c 0,53.057 -56.06,34.637 -68.573,61.966 -0.401,0.601 -0.701,1.502 -1.102,1.902 -0.3,-0.6 -0.7,-1.501 -1.001,-1.902 -12.513,-27.229 -68.573002,-8.709 -68.573002,-61.966 V 59.387315 l -0.3,-31.0332 c -13.1144,-3.3035 -26.2285,-6.0064 -39.6428,-8.2088 -2.4026,-0.7007 -4.2045,0 -5.0054,2.5027 l -5.8062,24.326 c -0.7007,2.1023 -0.1001,3.704 1.5016,4.4047 12.5134,5.0054 12.5134,8.6093 9.7104,19.621 -22.5241,70.375305 -27.4294,164.175305 54.6584,201.015305 14.015002,6.207 34.737002,10.011 51.155002,10.711 1.401,0.201 5.005,0.201 6.707,0.201 z m 92.699,-121.931 c -4.705,0 -8.509,3.704 -8.509,8.509 0,4.705 3.704,8.509 8.509,8.509 4.705,0 8.509,-3.704 8.509,-8.509 0,-4.705 -3.904,-8.509 -8.509,-8.509 z M 57.200878,33.860015 c 4.705,0 8.5091,3.704 8.5091,8.5091 0,4.8051 -3.704,8.5091 -8.5091,8.5091 -4.8051,0 -8.5091,-3.704 -8.5091,-8.5091 0,-4.8051 3.8041,-8.5091 8.5091,-8.5091 z m 186.800102,0.3003 c 4.705,0 8.509,3.704 8.509,8.5091 0,4.8052 -3.704,8.5091 -8.509,8.5091 -4.705,0 -8.509,-3.7039 -8.509,-8.5091 0,-4.8051 3.904,-8.5091 8.509,-8.5091 z M 55.098578,160.99602 c 4.7051,0 8.5092,3.704 8.5092,8.509 0,4.705 -3.704,8.509 -8.5092,8.509 -4.8051,0 -8.5091,-3.704 -8.5091,-8.509 0.1001,-4.705 3.8041,-8.509 8.5091,-8.509 z m 23.8254,62.167 c 4.705,0 8.509,3.704 8.509,8.509 0,4.705 -3.704,8.509 -8.509,8.509 -4.7049,0 -8.509,-3.704 -8.509,-8.509 0,-4.705 3.704,-8.509 8.509,-8.509 z m 144.255002,0 c 4.705,0 8.509,3.704 8.509,8.509 0,4.705 -3.704,8.509 -8.509,8.509 -4.705,0 -8.51,-3.704 -8.51,-8.509 0,-4.705 3.905,-8.509 8.51,-8.509 z M 57.200878,38.164615 c 2.2024,0 4.0043,1.8019 4.0043,4.0043 0,2.2023 -1.8019,4.0043 -4.0043,4.0043 -2.2024,0 -4.0043,-1.802 -4.0043,-4.0043 -0.2002,-2.2024 1.8019,-4.0043 4.0043,-4.0043 z m 186.800102,0.3003 c 2.202,0 4.004,1.8019 4.004,4.0043 0,2.2024 -1.802,4.2045 -4.004,4.2045 -2.203,0 -4.004,-1.8019 -4.004,-4.2045 0,-2.2024 1.801,-4.0043 4.004,-4.0043 z M 55.098578,165.50102 c 2.2024,0 4.0043,1.802 4.0043,4.004 0,2.203 -1.8019,4.004 -4.0043,4.004 -2.2023,0 -4.0042,-1.801 -4.0042,-4.004 0,-2.202 1.8019,-4.004 4.0042,-4.004 z m 23.8254,61.966 c 2.203,0 4.004,1.802 4.004,4.005 0,2.202 -1.801,4.004 -4.004,4.004 -2.202,0 -4.0041,-1.802 -4.0041,-4.004 -0.2002,-2.003 1.6021,-4.005 4.0041,-4.005 z m 144.255002,0 c 2.202,0 4.004,1.802 4.004,4.005 0,2.202 -1.802,4.004 -4.004,4.004 -2.203,0 -4.005,-1.802 -4.005,-4.004 0,-2.003 1.802,-4.005 4.005,-4.005 z"
     clip-rule="evenodd"
     fill-rule="evenodd" />
  <path
     id="path6"
     fill="#231f20"
     d="m 30.772378,114.04602 34.2366,-54.658705 h 19.921 v -43.6468 h -0.6 -5.206 v -5.3056 -7.0074999 -3.40369999 h 5.106 c 9.41,0 12.613,2.20239999 19.420002,10.31109989 6.808,-8.1086999 9.711,-10.31109989 19.421,-10.31109989 h 3.103 v 3.30359999 7.1075999 4.705 h -1.701 c -0.401,0 -0.601,0 -0.801,0 v 21.0225 h 7.408 v -21.0225 h -0.601 -1.702 v -4.705 -7.0074999 -3.40369999 h 3.104 c 10.11,0.3003 12.613,2.20239999 19.42,10.31109989 6.808,-8.1086999 9.711,-10.61139989 19.421,-10.31109989 h 3.104 v 3.30359999 7.1075999 4.705 h -1.702 c -0.401,0 -0.601,0 -0.801,0 v 21.0225 h 6.907 v -21.0225 h -0.6 -1.402 v -4.705 -7.0074999 -3.40369999 h 2.603 c 9.71,-0.3003 12.613,2.20239999 19.421,10.31109989 6.807,-8.1086999 10.11,-10.61139989 19.42,-10.31109989 h 5.106 v 3.30359999 7.1075999 5.3056 h -5.306 c -0.4,0 -0.6,0 -0.801,0 l 0.1,43.6468 h 19.621 l 34.638,54.057705 10.01,-3.704 c 0.601,-2.603 2.103,-4.905 4.305,-6.006 4.605,-2.203 10.411,0.701 13.214,6.407 2.803,5.706 1.402,12.213 -3.203,14.315 -2.403,1.101 -5.106,1.001 -7.609,-0.4 l -23.224,13.714 4.004,13.915 -1.502,3.204 h -6.807 l -9.61,-9.911 -33.736,12.613 0.1,23.926 v 0.1 c 45.749,20.122 64.769,46.25 -1.802,25.728 l -4.205,-1.502 c -13.214,22.324 -45.749,11.512 -59.964,34.537 -10.812,-21.123 -46.45,-13.114 -60.365002,-35.037 l -5.806,2.202 c -67.5721,20.822 -46.95,-6.207 0.1,-26.529 v -22.524 l -35.5377,-13.314 -9.6103,9.911 h -6.8073 l -1.5016,-3.204 4.0043,-13.915 -23.2248,-13.714 c -2.5026999,1.401 -5.3056999,1.501 -7.6081999,0.4 -4.6049,-2.202 -6.0064,-8.609 -3.2034,-14.315 2.803,-5.706 8.7092999,-8.609 13.2140999,-6.407 2.4026,1.101 3.704,3.303 4.3046,6.006 z" />
  <path
     id="path8"
     fill="#ef4e23"
     d="m 88.333978,59.387315 v -46.2495 c -0.1,-1.5016 -1.001,-2.6028 -3.904,-2.6028 V 6.0302151 c 9.71,-0.1001 15.717002,3.2034 19.320002,10.3109999 3.604,-7.1075999 9.711,-10.4110999 19.321,-10.3109999 v 4.4046999 c -2.903,0 -4.004,1.1012 -4.204,2.6028 v 28.2302 h 16.918 v -28.1301 c -0.1,-1.5016 -1.001,-2.6028 -3.905,-2.6028 V 6.0302151 c 9.711,-0.1001 15.717,3.2034 19.321,10.3109999 3.604,-7.1075999 9.711,-10.4110999 19.321,-10.3109999 v 4.4046999 c -2.903,0 -4.004,1.1012 -4.205,2.6028 v 28.2302 h 16.418 v -28.1301 c -0.1,-1.5016 -1.001,-2.6028 -3.904,-2.6028 V 6.0302151 c 9.71,-0.1001 15.717,3.2034 19.32,10.3109999 3.604,-7.1075999 9.711,-10.4110999 19.321,-10.3109999 v 4.4046999 c -3.103,0 -4.004,1.1012 -4.204,2.6028 v 46.2495 h -93.1 c -3.704,0 -6.907,1.001 -8.91,3.6038 -2.102,-2.4026 -4.404,-3.3035 -6.907,-3.6038 H 88.333978 Z m 0.801,61.365705 c 9.21,-1.001 18.319002,-1.802 27.529002,-2.403 -8.909,8.71 -14.315,21.023 -14.315,34.437 0,26.929 21.823,48.752 48.752,48.752 26.929,0 48.752,-21.823 48.752,-48.752 0,-13.514 -5.406,-25.527 -14.315,-34.437 9.21,0.601 18.32,1.202 27.429,2.203 v 60.064 c 0.601,19.221 -7.207,31.734 -25.027,35.838 -33.335,8.109 -29.932,10.412 -36.839,17.519 -6.907,-7.107 -3.504,-9.41 -36.839,-17.519 -17.819002,-4.204 -25.528002,-16.717 -25.027002,-35.838 v -59.864 z"
     clip-rule="evenodd"
     fill-rule="evenodd" />
  <path
     id="path10"
     fill="#a6a8ab"
     d="m 286.74598,105.83702 c -1.201,0.601 -2.202,1.702 -2.803,3.103 0,0 0.1,-0.1 0.301,-0.1 3.103,-1.501 7.107,0.401 8.909,4.305 1.201,2.603 1.201,5.606 0.1,7.608 0.1,0 0.401,-0.1 0.601,-0.3 3.203,-1.502 4.204,-6.107 2.202,-10.111 -2.002,-3.904 -6.206,-6.007 -9.31,-4.505 z m -273.092102,0 c 1.2013,0.601 2.2024,1.702 2.803,3.103 0,0 -0.1001,-0.1 -0.3003,-0.1 -3.1033,-1.501 -7.1075999,0.401 -8.9095999,4.305 -1.2012,2.603 -1.2012,5.606 -0.1001,7.608 -0.1001,0 -0.4004,-0.1 -0.6006,-0.3 -3.2034,-1.502 -4.2045,-6.107 -2.2024,-10.111 2.0022,-3.904 6.2066999,-6.007 9.3099999,-4.505 z m 53.9578,33.936 17.2183,6.507 v -11.913 l -26.4282,-10.01 c -0.6006,6.407 3.1033,13.314 9.2099,15.416 z m 147.357302,55.56 39.242,14.715 c -6.406,-9.41 -20.321,-17.618 -37.239,-25.527 -0.201,3.804 -0.601,6.908 -2.003,10.812 z m -155.666202,-84.491 -2.5027,10.011 -2.2024,-0.701 -10.8115,22.524 3.6038,1.202 -8.7093,8.709 -3.3035,-0.1 3.6038,-10.011 16.9181,-31.033 z m -23.1248,10.311 c -2.9031,1.902 -4.0043,5.306 -2.803,7.809 0.3003,-1.902 1.7018,-3.904 4.2045,-5.106 2.5027,-1.201 5.3057,-1.702 7.6082,-1.101 -0.1001,-0.3 -0.3004,-0.4 -0.4005,-0.701 -1.2013,-1.802 -3.6038,-2.502 -6.0064,-2.102 0,-0.1 -0.1001,-0.1 -0.1001,-0.3 -1.1012,-1.702 -3.5038,-2.403 -5.7061,-1.802 0,-0.1 -0.1001,-0.301 -0.1001,-0.401 -1.1012,-1.701 -3.3036,-2.202 -5.4058,-1.701 0,-0.101 -0.1001,-0.301 -0.1001,-0.301 -1.1012,-1.501 -3.1033,-2.102 -5.1055,-1.501 0,-0.1 -0.1001,-0.301 -0.1001,-0.301 -1.4015,-2.102 -4.4047,-2.402 -6.9074,-0.7 -2.2023,1.501 -3.2034,4.204 -2.2023,6.206 0.1001,-1.501 1.4015,-3.103 3.3035,-4.204 1.8019,-1.001 3.704,-1.202 5.606,-1.001 -0.6006,0.1 -1.0011,0.4 -1.4015,0.7 -2.2024,1.502 -3.2034,4.205 -2.2024,6.207 0.1002,-1.502 1.4015,-3.103 3.3036,-4.204 1.8019,-1.002 3.9042,-1.202 5.7061,-1.002 -0.6007,0.101 -1.1012,0.401 -1.7018,0.801 -2.5027,1.702 -3.5038,4.605 -2.5027,6.808 0.1001,-1.702 1.5016,-3.304 3.6038,-4.405 1.9021,-1.001 4.2045,-1.402 6.1066,-1.101 -0.6007,0.1 -1.1012,0.4 -1.7018,0.801 -2.6028,1.801 -3.6039,4.905 -2.5027,7.107 0.1001,-1.702 1.5016,-3.504 3.9042,-4.705 1.902,-1.001 4.2045,-1.401 6.2066,-1.101 -1.2013,0.5 -1.902,0.701 -2.6028,1.301 z m 196.610002,18.62 -15.616,5.806 v -11.912 l 24.726,-9.31 c 0.701,6.407 -3.003,13.314 -9.11,15.416 z m -145.655002,55.059 -40.8442,15.417 c 6.507,-9.911 21.423,-18.22 39.2422,-26.429 -0.401,3.204 0.2,7.508 1.602,11.012 z m 153.964002,-83.99 2.503,10.011 2.202,-0.701 10.812,22.424 -3.604,1.202 8.709,8.709 3.304,-0.1 -3.604,-10.011 -16.918,-31.033 z m 23.125,10.311 c 2.803,1.902 4.004,5.306 2.803,7.809 -0.3,-1.902 -1.702,-3.904 -4.204,-5.106 -2.503,-1.201 -5.306,-1.702 -7.609,-1.101 0.101,-0.3 0.301,-0.4 0.401,-0.701 1.201,-1.802 3.604,-2.502 6.006,-2.102 0,-0.1 0.1,-0.1 0.1,-0.3 1.102,-1.702 3.504,-2.403 5.707,-1.802 0,-0.1 0.1,-0.301 0.1,-0.401 1.101,-1.701 3.303,-2.202 5.405,-1.701 0,-0.101 0.101,-0.301 0.101,-0.301 1.001,-1.501 3.103,-2.102 5.105,-1.501 0,-0.1 0.1,-0.301 0.1,-0.301 1.402,-2.102 4.405,-2.402 6.908,-0.7 2.202,1.501 3.203,4.204 2.202,6.206 -0.1,-1.501 -1.402,-3.103 -3.304,-4.204 -1.802,-1.001 -3.904,-1.202 -5.606,-1.001 0.601,0.1 1.001,0.4 1.402,0.7 2.202,1.502 3.203,4.205 2.202,6.207 -0.1,-1.502 -1.401,-3.103 -3.303,-4.204 -1.802,-1.002 -3.905,-1.202 -5.706,-1.002 0.6,0.101 1.101,0.401 1.701,0.801 2.503,1.702 3.504,4.605 2.503,6.808 -0.1,-1.702 -1.502,-3.304 -3.604,-4.405 -1.902,-1.001 -4.204,-1.402 -6.106,-1.101 0.6,0.1 1.101,0.4 1.701,0.801 2.603,1.801 3.604,4.905 2.503,7.107 -0.1,-1.702 -1.501,-3.504 -3.904,-4.705 -1.902,-1.001 -4.205,-1.401 -6.207,-1.101 1.202,0.5 1.902,0.701 2.603,1.301 z"
     clip-rule="evenodd"
     fill-rule="evenodd" />
  <path
     id="path12"
     fill="#ffffff"
     d="m 84.729978,135.96902 -22.8244,-8.609 c 0.7008,2.202 2.5027,5.106 6.2067,6.407 l 16.7177,6.207 v -4.005 z m -31.9341,69.775 c 4.705,-6.006 16.0171,-13.114 32.5351,-20.622 0,1.501 0.1,3.103 0.4,4.405 -13.5143,5.806 -19.6208,8.909 -32.9351,16.217 z m 196.410102,0.701 c -4.705,-6.007 -16.017,-13.114 -32.435,-20.622 -0.1,1.501 -0.3,3.103 -0.6,4.404 13.514,5.706 19.821,8.91 33.035,16.218 z m -31.834,-71.076 22.925,-8.61 c -0.701,2.203 -2.503,5.106 -6.207,6.407 l -16.718,6.207 z"
     clip-rule="evenodd"
     fill-rule="evenodd" />
  <path
     id="path14"
     fill="#ec1c24"
     d="m 119.86798,62.090215 h 13.714 v 16.9178 h -8.309 v -5.405 h -3.303 l -1.702,18.92 c 1.502,0 3.604,-0.1 5.005,-0.1 v -6.908 l 8.509,-0.1 c 0,6.207 0,12.514 0,18.720005 l -15.316,0.601 c -0.601,0 -1.101,0 -1.702,0 -5.706,-0.601 -8.209,-5.306005 -7.608,-10.712005 l 2.603,-25.4268 c 0.5,-4.705 3.804,-6.507 8.109,-6.507 z m -74.780502,57.361805 6.8073,-11.212 0.1001,-0.301 h 0.3004 l 11.212,-0.801 1.001,-0.1 -0.3003,1.001 -2.9031,10.812 12.6135,-1.502 v -0.1 h 0.4004 c 15.7172,-1.501 31.433202,-2.502 46.950202,-3.103 -0.601,0.4 -1.201,1.001 -1.802,1.401 -14.916,0.601 -29.732002,1.502 -44.647602,2.904 v 0.1 h -0.4005 l -14.2152,1.802 -1.0011,0.1 0.3004,-1.001 2.9031,-10.812 -10.0107,0.701 -6.3068,10.811 z m 135.445502,-5.406 c 19.621,0.701 39.242,2.202 58.562,4.905 l -11.112,-44.047005 h 4.005 l 24.226,44.047005 -1.802,0.701 -23.325,-43.647005 h -1.202 l 11.112,44.348005 c -19.421,-2.603 -38.941,-4.205 -58.562,-5.006 -0.701,-0.3 -1.202,-0.701 -1.902,-1.301 z m 86.292,1.101 1.802,-0.701 -33.236,-52.355805 h -20.422 l 10.111,47.951805 c -19.02,-1.502 -38.241,-2.503 -57.561,-2.904 1.201,0.401 2.402,1.002 3.603,1.402 18.62,0.4 37.14,1.401 55.76,2.903 l -0.1,-1.001 -10.011,-47.150505 h 17.819 z m -135.946,-6.607 c 1.102,-0.601 2.403,-1.001 3.604,-1.402 -19.621,0.401 -39.242002,1.402 -59.063002,3.204 l 10.311,-48.251805 h -19.5209 l -32.2345,52.155805 -0.6006,1.001 1.4015,0.601 32.3346,-52.356305 h 16.9179 l -10.1106,47.250305 -0.1001,0.801 1.0011,-0.1 c 18.6196,-1.602 37.439602,-2.503 56.059602,-2.903 z m -61.465402,-33.736005 2.9031,0.1 -5.7061,21.723 -9.31,0.801 z m 1.4015,1.602 -5.1055,19.02 -5.8062,0.601 10.2109,-19.822 z m 16.1169,-2.904 -4.404,21.123 -2.203,0.3 -2.502,12.914005 c 6.206,-0.6 12.613,-1.201 19.02,-1.702 l 1.702,-12.513005 c -1.702,0.1 -3.204,0.1 -4.905,0.3 l 0.3,-1.501 6.507002,-0.701 c 3.904,-0.3 6.907,-0.701 7.608,-5.706 l 1.802,-14.2154 c 0.4,-3.5037 0.1,-5.8062 -1.101,-7.4079 -1.202,-1.7018 -3.504,-2.4026 -6.507,-2.4026 H 87.632978 l -2.503,11.5119 z m 11.513,9.01 -2.803,0.3 1.501,-9.209 h 2.503 z m 39.242002,-9.01 h -2.103 v -11.4118 h 25.728 v 14.4158 h -7.808 v -3.104 h -5.606 v 4.805 c 2.502,0 4.304,0 6.807,0 v 8.91 h -6.807 v 4.905 c 1.501,0 4.004,0 5.606,0 v -3.103 h 8.208 v 1.401 13.715005 c -8.208,-0.3 -18.119,-0.3 -26.228,0.1 0,-4.004 0,-8.108005 0,-12.113005 h 2.203 z m 26.228,-11.4118 v 41.944805 c 3.604,0 7.207,0.3 10.811,0.401 V 88.418015 h 3.604 c 0,5.406 0,10.812 0,16.118005 3.604,0.1 7.108,0.4 10.712,0.6 l -0.1,-43.045805 h -10.612 v 15.3168 h -3.604 v -15.3168 z m 27.029,30.8328 v 12.213005 c 3.904,0.1 8.208,0.601 12.113,0.801 l 0.8,-9.610005 3.905,0.3 1.101,9.911005 1.101,0.1 c 4.205,0.3 8.509,0.801 12.614,1.101 l -2.503,-12.914005 -1.902,-0.1 -6.507,-32.6348 h -17.619 l -1.702,11.4118 h 3.103 c -0.6,6.507 -1.101,13.114 -1.902,19.621 z m 13.314,-7.207 h 2.202 l -1.001,-9.21 h -0.801 z" />
  <path
     id="path16"
     fill="#ffffff"
     d="m 119.86798,63.491615 c -3.604,0 -6.207,1.4015 -6.707,5.3057 l -2.603,25.4277 c -0.701,6.206005 2.903,9.410005 7.908,9.209005 l 13.915,-0.6 c 0,-5.306005 0,-10.712005 0,-16.017005 -2.402,0 -3.303,0 -5.706,0.1 0,2.602 0,4.304 0,6.807 -2.202,0 -5.706,0.1 -7.908,0.3 l 1.902,-21.723 c 1.902,0 4.004,0 6.006,0 0,1.902 0,3.504 0,5.406 2.203,0 3.304,0 5.706,0 0,-4.705 0,-9.4102 0,-14.2154 -4.404,0 -8.008,0 -12.513,0 z m -50.454102,11.3124 2.9031,0.1 -5.7061,21.723 -9.31,0.801 z m 52.256102,39.142005 c -15.717,0.6 -31.234002,1.501 -46.950402,3.103 h -0.4004 v 0.1 l -12.6135,1.502 2.9031,-10.812 0.3003,-1.001 -1.0011,0.1 -11.212,0.801 h -0.3003 l -0.1001,0.3 -6.8073,11.212 -10.4112,-3.904 32.1344,-52.155705 h 16.9185 l -10.3114,47.550705 -0.1001,0.801 1.0011,-0.1 c 18.9204,-1.702 37.640402,-2.603 56.260402,-3.203 -3.304,1.601 -6.307,3.603 -9.31,5.706 z m 145.155,1.201 -32.434,-51.755505 h -17.82 l 10.011,47.150505 0.1,1.001 c -18.52,-1.502 -37.14,-2.503 -55.759,-2.903 3.303,1.502 6.507,3.504 9.41,5.606 19.621,0.701 39.242,2.202 58.562,4.905 l -11.112,-44.047005 h 4.005 l 24.226,44.047005 z M 86.832978,72.100815 h 1.801 l -5.005,23.7252 -2.202,0.301 -1.902,10.010005 c 6.907,-0.6 10.01,-1.001 16.117,-1.401 l 1.201,-9.711005 c -1.501,0.1 -4.004,0.301 -4.905,0.301 l 0.801,-4.205 6.207,-0.701 c 3.904002,-0.4 7.107002,-0.1 7.608002,-4.705 l 1.701,-14.0146 c 0.701,-6.1065 -1.001,-8.2088 -6.406,-8.2088 -4.605002,0 -8.710002,0 -13.515002,0 z m 14.415002,0 -5.306002,0.1001 -2.002,12.0131 5.606,-0.601 z m 35.638,0 c 0.601,0 1.502,0 2.102,0 0,7.4082 0,13.7152 0,21.2232 h -2.202 v 9.310005 c 7.208,-0.101 16.217,-0.401 23.525,-0.101 0,-4.304005 0,-8.108005 0,-12.413005 -2.402,0 -3.103,0 -5.406,0 0,1.402 0,1.802 0,3.103 -2.202,0 -6.106,0 -8.308,0 0,-2.402 0,-5.105 0,-7.608 1.902,0 4.705,0 6.807,0 0,-2.402 0,-3.704 0,-6.106 -1.902,0 -4.905,0 -6.807,0 0,-2.503 0,-5.006 0,-7.5083 1.501,0 6.707,0 8.308,0 0,1.5013 0,1.4013 0,3.1033 2.203,0 2.803,0 5.006,0 0,-4.2045 0,-7.508 0,-11.7125 -7.108,0 -16.017,0 -23.025,0 0,2.7029 0,6.0064 0,8.7093 z m 28.431,30.533205 V 63.491615 c 2.602,0 5.305,0 8.108,0 0,5.1055 0,10.1104 0,15.3164 1.502,0 4.705,0 6.207,0 0,-5.105 0,-10.311 0,-15.3164 h 7.908 v 30.7334 9.410005 c -2.602,-0.101 -5.105,-0.401 -7.908,-0.401 0,-5.306005 0,-10.811005 0,-16.117005 -1.502,0 -4.705,0 -6.207,0 0,5.306 0,10.711 0,16.017005 -2.803,-0.3 -5.305,-0.5 -8.108,-0.5 z m 27.029,-8.309005 h 2.502 c 0.801,-7.208 1.402,-14.916 2.203,-22.2242 h -2.803 l 1.201,-8.6092 h 15.116 l 6.507,32.4344 1.902,0.1 1.902,10.011005 c -3.504,-0.3 -7.408,-0.701 -10.812,-1.001 l -1.101,-9.911005 -6.407,-0.4 -0.8,9.610005 c -3.104,-0.1 -6.507,-0.6 -9.41,-0.7 -0.201,-2.603 0,-6.507005 0,-9.310005 z m 15.716,-7.208 -5.105,-0.1 0.701,-11.813 h 3.303 z" />
  <path
     id="path18"
     fill="#231f20"
     d="m 151.00098,201.64002 c 26.829,0 48.752,-21.924 48.752,-48.753 0,-26.828 -21.923,-48.752 -48.752,-48.752 -26.829,0 -48.752,21.924 -48.752,48.752 0,26.929 21.923,48.753 48.752,48.753 z"
     clip-rule="evenodd"
     fill-rule="evenodd" />
  <path
     id="path20"
     stroke-miterlimit="22.9256"
     stroke-width="0.1172"
     stroke="#231f20"
     fill="#ffffff"
     d="m 151.00098,198.73602 c 25.127,0 45.749,-20.622 45.749,-45.749 0,-25.126 -20.522,-45.748 -45.749,-45.748 -25.227,0 -45.749,20.622 -45.749,45.748 0.1,25.127 20.622,45.749 45.749,45.749 z"
     clip-rule="evenodd"
     fill-rule="evenodd" />
  <path
     id="path22"
     fill="#e6e7e8"
     d="m 117.66498,131.96502 c -4.705,0 -10.311,3.904 -12.113,12.814 1.702,-11.913 10.111,-25.428 22.825,-32.235 -1.102,1.802 -1.102,3.304 -0.301,5.006 -5.005,3.704 -8.609,8.308 -10.411,14.415 z"
     clip-rule="evenodd"
     fill-rule="evenodd" />
  <path
     id="path24"
     fill="#231f20"
     d="m 150.90098,152.68702 c -4.205,-4.605 -8.109,-9.41 -11.512,-14.616 1.802,-5.105 5.405,-9.41 10.611,-13.114 6.807,-0.3 12.614,1.702 17.519,5.707 2.603,5.806 2.502,11.212 1.101,16.517 -5.806,2.303 -11.612,4.105 -17.719,5.506 z"
     clip-rule="evenodd"
     fill-rule="evenodd" />
  <path
     id="path26"
     fill="#f1f1f2"
     d="m 139.18898,138.07202 c -5.306,0.6 -10.612,1.501 -15.717,4.204 -2.603,-3.103 -4.705,-6.407 -6.007,-10.311 4.605,-14.215 17.119,-20.422 26.429,-16.518 2.502,2.803 4.204,6.207 5.706,9.611 -4.505,3.403 -8.309,7.608 -10.411,13.014 z"
     clip-rule="evenodd"
     fill-rule="evenodd" />
  <path
     id="path28"
     fill="#231f20"
     d="m 117.76598,159.49402 c -3.104,-0.7 -5.807,-0.4 -8.309,-0.1 -2.102,-2.502 -4.305,-5.606 -4.205,-10.611 0,-1.101 0,-2.403 0.301,-3.504 0.3,-1.501 0.7,-2.903 1.101,-4.304 2.402,-6.007 6.707,-8.91 11.112,-9.01 1.101,3.704 3.103,7.108 6.006,10.311 -4.004,5.306 -6.106,10.812 -6.006,17.218 z"
     clip-rule="evenodd"
     fill-rule="evenodd" />
  <path
     id="path30"
     fill="#f1f1f2"
     d="m 123.67198,142.17602 c 4.605,-2.403 10.011,-3.604 15.717,-4.205 3.504,5.106 7.408,10.011 11.512,14.616 -2.402,5.606 -4.004,11.212 -5.306,16.818 -6.406,2.503 -12.113,3.103 -17.919,3.303 -6.006,-4.204 -8.909,-8.609 -9.91,-13.314 -0.1,-6.006 2.002,-11.712 5.906,-17.218 z"
     clip-rule="evenodd"
     fill-rule="evenodd" />
  <path
     id="path32"
     fill="#d0d2d3"
     d="m 109.45698,159.19402 c -3.504,-4.004 -5.106,-8.609 -4.005,-14.015 -0.4,2.603 -0.701,5.306 -0.701,7.909 0,8.308 2.403,16.217 7.108,23.725 -2.102,-5.306 -3.203,-11.212 -2.402,-17.619 z"
     clip-rule="evenodd"
     fill-rule="evenodd" />
  <path
     id="path34"
     fill="#e6e7e8"
     d="m 109.45598,159.19402 c 2.503,-0.3 5.306,-0.3 8.309,0.1 1.502,5.806 4.906,10.311 9.911,13.314 -0.801,6.107 0,10.412 2.403,13.515 -6.908,2.402 -12.914,-1.001 -18.22,-9.31 -2.202,-5.506 -3.404,-11.312 -2.403,-17.619 z"
     clip-rule="evenodd"
     fill-rule="evenodd" />
  <path
     id="path36"
     fill="#231f20"
     d="m 127.67598,172.70902 c 6.907,-0.301 12.814,-1.202 17.919,-3.304 2.903,4.905 6.907,9.21 11.813,12.914 -3.704,6.206 -6.808,9.71 -9.21,9.91 -8.509,0.701 -13.515,-2.402 -18.22,-6.006 -2.302,-3.103 -3.103,-7.708 -2.302,-13.514 z"
     clip-rule="evenodd"
     fill-rule="evenodd" />
  <path
     id="path38"
     fill="#bbbdbf"
     d="m 122.67098,186.42302 c 1.101,4.705 7.208,7.608 14.716,10.111 7.808,2.503 16.117,2.403 17.118,0 -2.903,-0.701 -4.605,-2.403 -6.107,-4.305 -5.806,0.301 -11.712,-0.8 -18.219,-6.006 -2.603,0.801 -5.106,0.901 -7.508,0.2 z"
     clip-rule="evenodd"
     fill-rule="evenodd" />
  <path
     id="path40"
     fill="#231f20"
     d="m 122.67098,186.42302 c -2.203,-0.7 -5.706,-2.803 -8.91,-6.807 2.503,3.904 8.71,9.41 12.414,11.713 -1.802,-1.402 -3.104,-2.904 -3.504,-4.906 z"
     clip-rule="evenodd"
     fill-rule="evenodd" />
  <path
     id="path42"
     fill="#d0d2d3"
     d="m 150.80098,152.58702 c 6.206,-1.201 12.113,-3.103 17.819,-5.406 4.405,3.304 8.109,7.408 10.811,12.113 0.101,6.207 -1.201,12.213 -5.405,17.519 -5.106,2.803 -10.311,5.105 -16.518,5.606 -4.405,-3.504 -8.509,-7.808 -11.813,-12.914 0.901,-5.406 2.603,-11.112 5.106,-16.918 z"
     clip-rule="evenodd"
     fill-rule="evenodd" />
  <path
     id="path44"
     fill="#929497"
     d="m 148.29798,192.12902 c 3.304,-0.6 6.207,-5.105 9.21,-9.91 6.107,-0.401 11.513,-2.603 16.518,-5.606 2.102,2.803 4.605,4.405 7.208,5.806 -0.701,4.405 -2.603,8.109 -12.113,12.213 -8.509,4.104 -16.818,3.804 -20.823,-2.503 z"
     clip-rule="evenodd"
     fill-rule="evenodd" />
  <path
     id="path46"
     fill="#231f20"
     d="m 145.59498,198.33602 c 3.904,0.1 7.809,0.1 8.609,-1.502 4.005,1.001 7.508,0.701 10.612,-0.3 -4.605,1.402 -9.21,2.202 -13.715,2.202 -1.902,0 -3.704,-0.2 -5.506,-0.4 z"
     clip-rule="evenodd"
     fill-rule="evenodd" />
  <path
     id="path48"
     fill="#231f20"
     d="m 179.23098,159.19402 c 4.305,-0.4 7.909,-2.102 11.012,-4.405 9.41,9.01 -3.203,28.531 -9.21,27.93 -2.903,-1.501 -5.305,-3.503 -7.207,-5.806 4.004,-5.205 5.806,-11.012 5.405,-17.719 z"
     clip-rule="evenodd"
     fill-rule="evenodd" />
  <path
     id="path50"
     fill="#6d6e70"
     d="m 174.62598,192.02902 c 3.604,-2.402 5.406,-4.705 6.507,-9.31 3.704,0.1 10.011,-6.907 11.913,-15.016 0.401,0 1.001,0 1.402,0.1 -3.104,9.31 -9.51,17.419 -19.822,24.226 z"
     clip-rule="evenodd"
     fill-rule="evenodd" />
  <path
     id="path52"
     fill="#bbbdbf"
     d="m 168.51998,147.28102 c 1.401,-5.305 1.101,-10.811 -1.102,-16.517 2.803,-2.803 6.407,-4.305 10.412,-4.906 7.908,3.204 11.212,7.408 12.413,11.913 1.902,8.709 1.502,13.515 0.1,16.918 -3.203,2.603 -6.807,4.205 -11.012,4.405 -2.603,-4.605 -6.307,-8.509 -10.811,-11.813 z"
     clip-rule="evenodd"
     fill-rule="evenodd" />
  <path
     id="path54"
     fill="#808184"
     d="m 193.04598,167.70302 c 0.801,-4.705 0.801,-9.21 -2.803,-12.914 1.502,-3.203 1.402,-9.009 -0.1,-16.918 1.402,-0.6 2.503,-1.501 3.504,-2.803 4.705,12.113 4.304,22.825 0.801,32.635 -0.501,0.1 -0.901,0 -1.402,0 z"
     clip-rule="evenodd"
     fill-rule="evenodd" />
  <path
     id="path56"
     fill="#dbdcdd"
     d="m 149.79998,125.05802 c -1.502,-3.504 -3.204,-6.808 -5.706,-9.611 2.502,-5.706 9.41,-6.807 19.22,-4.004 10.712,3.103 15.417,8.109 14.616,14.415 -4.004,0.701 -7.608,2.103 -10.411,4.906 -5.106,-4.105 -10.812,-6.307 -17.719,-5.706 z"
     clip-rule="evenodd"
     fill-rule="evenodd" />
  <path
     id="path58"
     fill="#231f20"
     d="m 177.82998,125.85802 c 0.4,-3.503 -0.801,-6.807 -4.906,-10.01 1.402,-0.701 3.104,-0.801 5.306,-0.401 6.707,5.606 12.213,11.813 15.316,19.721 -1.101,1.402 -2.202,2.203 -3.503,2.803 -1.102,-5.305 -5.206,-9.31 -12.213,-12.113 z"
     clip-rule="evenodd"
     fill-rule="evenodd" />
  <path
     id="path60"
     fill="#a6a8ab"
     d="m 173.02498,115.74802 c -6.007,-3.604 -12.213,-5.807 -19.021,-5.807 -1.101,-1.701 -3.203,-2.602 -5.706,-3.503 10.712,-0.601 20.723,2.102 29.932,8.909 -2.002,-0.5 -3.704,-0.2 -5.205,0.401 z"
     clip-rule="evenodd"
     fill-rule="evenodd" />
  <path
     id="path62"
     fill="#231f20"
     d="m 128.07698,117.55002 c -0.801,-1.702 -1.001,-3.304 0.3,-5.006 5.806,-3.604 12.513,-5.606 20.121,-6.006 2.403,0.801 4.405,1.802 5.606,3.503 -5.005,0 -8.308,1.802 -9.91,5.406 -5.005,-1.802 -10.111,-1.802 -16.117,2.103 z"
     clip-rule="evenodd"
     fill-rule="evenodd" />
  <path
     id="path64"
     fill="#ffffff"
     d="m 150.80098,152.58702 c 6.206,-1.201 12.113,-3.103 17.819,-5.406 h 0.1 c -6.407,4.305 -17.218,5.106 -16.918,8.309 0.3,3.103 -1.702,8.309 -4.205,12.413 -1.802,2.904 8.309,11.813 9.911,14.316 -4.405,-3.504 -8.509,-7.809 -11.813,-12.914 0.901,-5.206 2.603,-10.912 5.106,-16.718 z"
     clip-rule="evenodd"
     fill-rule="evenodd" />
  <path
     id="path66"
     fill="#808184"
     d="m 168.41998,147.28102 c 4.604,3.304 8.108,7.408 10.811,12.113 0.701,5.406 -1.201,12.213 -5.406,17.519 -5.005,2.803 -10.311,5.106 -16.417,5.606 20.822,-3.504 26.328,-22.324 11.012,-35.238 z"
     clip-rule="evenodd"
     fill-rule="evenodd" />
  <path
     id="path68"
     fill="#808184"
     d="m 179.83198,126.65902 c 6.507,3.104 9.41,6.808 10.411,11.112 1.902,8.71 1.502,13.515 0.1,16.918 -2.903,2.503 -6.407,4.005 -10.111,4.405 12.914,-4.004 11.012,-10.411 8.71,-20.322 -0.801,-3.604 -4.405,-9.009 -9.11,-12.113 z"
     clip-rule="evenodd"
     fill-rule="evenodd" />
  <path
     id="path70"
     fill="#ffffff"
     d="m 168.51998,147.28102 c 1.401,-5.305 1.101,-10.811 -1.102,-16.517 1.902,-1.902 4.405,-3.204 7.208,-4.205 -2.102,0.801 -5.406,3.704 -5.406,4.905 0,1.102 1.702,4.005 1.502,6.007 -0.1,2.803 -0.3,5.306 0.801,8.509 1.702,5.306 8.709,9.21 7.808,13.514 -2.903,-4.805 -6.307,-8.909 -10.811,-12.213 z"
     clip-rule="evenodd"
     fill-rule="evenodd" />
  <path
     id="path72"
     fill="#bbbdbf"
     d="m 193.04598,167.70302 c 0.801,-4.705 0.801,-9.21 -2.803,-12.914 1.402,-3.303 1.402,-9.009 -0.1,-16.918 4.405,8.309 1.001,13.915 1.502,16.518 0.1,0.801 5.305,8.209 1.401,13.314 z"
     clip-rule="evenodd"
     fill-rule="evenodd" />
  <path
     id="path74"
     fill="#bbbdbf"
     d="m 148.39798,192.12902 c 3.204,-0.7 6.007,-5.305 9.01,-9.91 6.107,-0.401 11.412,-2.603 16.518,-5.606 2.102,2.803 4.605,4.405 7.207,5.806 -2.602,-0.4 -5.105,-1.502 -6.707,-3.604 -5.005,2.903 -10.411,5.006 -16.517,5.606 -2.403,4.105 -5.306,7.208 -9.511,7.708 z"
     clip-rule="evenodd"
     fill-rule="evenodd" />
  <path
     id="path76"
     fill="#6d6e70"
     d="m 180.33198,185.32202 c -1.401,3.604 -3.603,6.107 -11.212,9.61 -7.107,3.204 -14.015,3.504 -18.519,-0.1 4.705,2.102 11.712,1.101 18.92,-2.202 5.706,-2.803 8.909,-5.006 10.811,-7.308 z"
     clip-rule="evenodd"
     fill-rule="evenodd" />
  <path
     id="path78"
     fill="#58595b"
     d="m 179.23098,159.19402 c 4.005,-0.4 7.508,-1.902 10.412,-4.004 -1.902,3.303 -8.109,4.705 -8.109,5.806 0.3,3.304 -0.1,5.106 -0.801,7.909 -0.801,2.602 -2.102,5.005 -4.004,7.508 -1.001,1.101 1.401,3.904 4.304,6.206 -3.203,-1.501 -5.405,-3.604 -7.207,-5.806 3.904,-5.206 5.706,-11.012 5.405,-17.619 z"
     clip-rule="evenodd"
     fill-rule="evenodd" />
  <path
     id="path80"
     fill="#58595b"
     d="m 150.90098,152.68702 c -4.205,-4.605 -8.109,-9.41 -11.512,-14.615 1.802,-5.106 5.405,-9.411 10.611,-13.114 0.601,0 1.201,0 1.802,0 -16.017,10.711 -10.411,16.918 0.801,27.229 -0.701,0.2 -1.201,0.4 -1.702,0.5 z"
     clip-rule="evenodd"
     fill-rule="evenodd" />
  <path
     id="path82"
     fill="#d0d2d3"
     d="m 123.67198,142.17602 c 3.203,-1.702 6.807,-2.803 10.711,-3.504 -2.803,1.001 -5.405,2.102 -7.808,3.504 -3.904,2.402 -8.109,11.112 -7.508,17.118 0.701,6.407 5.005,9.61 8.509,13.515 -5.105,-2.903 -8.909,-8.61 -9.91,-13.315 0,-6.106 2.102,-11.812 6.006,-17.318 z"
     clip-rule="evenodd"
     fill-rule="evenodd" />
  <path
     id="path84"
     fill="#bbbdbf"
     d="m 142.39198,142.57602 c 0.601,0.601 7.909,9.611 8.309,10.111 -2.403,5.606 -4.004,11.212 -5.306,16.818 -6.407,2.503 -12.113,3.103 -17.919,3.304 10.111,-2.103 16.418,-3.104 19.321,-11.813 3.003,-8.309 0.5,-10.511 -4.405,-18.42 z"
     clip-rule="evenodd"
     fill-rule="evenodd" />
  <path
     id="path86"
     fill="#58595b"
     d="m 127.67598,172.70902 c 6.908,-0.301 12.814,-1.202 17.919,-3.304 2.203,3.704 5.006,7.108 8.51,10.111 -5.006,-3.904 -7.108,-5.306 -9.911,-6.507 -3.604,-1.702 -12.513,1.201 -13.715,3.103 -1.401,1.902 -2.502,4.605 0.1,10.411 -0.1,-0.1 -0.3,-0.3 -0.4,-0.3 -2.503,-3.103 -3.304,-7.708 -2.503,-13.514 z"
     clip-rule="evenodd"
     fill-rule="evenodd" />
  <path
     id="path88"
     fill="#e6e7e8"
     d="m 122.57098,140.87502 c -2.203,-2.603 -3.704,-5.707 -4.905,-9.01 3.703,-12.413 13.914,-18.62 22.524,-17.519 -13.715,0.3 -25.428,14.416 -17.619,26.529 z"
     clip-rule="evenodd"
     fill-rule="evenodd" />
  <path
     id="path90"
     fill="#d0d2d3"
     d="m 139.18798,138.07102 c -0.4,0 -4.204,0.601 -4.605,0.601 3.604,-0.601 5.306,-4.305 7.809,-7.908 4.905,-7.208 6.507,-5.106 2.202,-14.616 2.102,2.603 3.704,5.606 5.006,8.709 -4.505,3.604 -8.309,7.809 -10.412,13.214 z"
     clip-rule="evenodd"
     fill-rule="evenodd" />
  <path
     id="path92"
     fill="#bbbdbf"
     d="m 127.67598,173.00902 c -0.801,6.006 0.1,10.311 2.403,13.214 -6.908,2.403 -12.914,-1.001 -18.22,-9.31 -0.7,-1.702 -3.604,-9.01 -2.402,-17.519 0.3,5.807 1.501,10.411 3.103,13.915 3.704,8.709 9.71,11.412 11.713,10.411 1.902,-1.101 0.4,-5.305 3.403,-10.711 z"
     clip-rule="evenodd"
     fill-rule="evenodd" />
  <path
     id="path94"
     fill="#e6e7e8"
     d="m 122.67098,186.42302 c 0.4,1.802 1.502,3.204 3.103,4.605 -1.802,-3.303 1.502,-3.904 4.605,-2.603 4.004,1.702 9.911,4.305 14.716,3.905 -4.305,-0.601 -8.509,-1.002 -15.016,-6.107 -2.503,0.801 -5.006,0.901 -7.408,0.2 z"
     clip-rule="evenodd"
     fill-rule="evenodd" />
  <path
     id="path96"
     fill="#6d6e70"
     d="m 130.27898,193.83102 c 2.102,1.001 4.405,1.902 7.107,2.803 7.809,2.503 16.118,2.503 16.919,0.1 -3.104,-1.001 -4.405,-2.602 -6.107,-4.605 -0.701,0 -3.103,0 -3.904,0 3.303,1.702 3.704,3.104 3.103,3.905 -1.501,1.501 -7.608,1.101 -13.214,-0.701 -1.402,-0.501 -2.603,-0.901 -3.904,-1.502 z"
     clip-rule="evenodd"
     fill-rule="evenodd" />
  <path
     id="path98"
     fill="#929497"
     d="m 149.79998,125.05802 c 10.311,-1.402 12.413,4.204 22.424,1.101 6.106,-1.902 -1.402,-12.213 -12.113,-15.317 -0.801,-0.3 -1.502,-0.4 -2.403,-0.6 1.802,0.3 3.604,0.7 5.606,1.201 10.712,3.103 15.417,8.109 14.616,14.415 -4.004,0.701 -7.608,2.103 -10.411,4.906 -5.106,-4.105 -10.812,-5.907 -17.719,-5.706 z"
     clip-rule="evenodd"
     fill-rule="evenodd" />
  <path
     id="path100"
     fill="#ffffff"
     d="m 117.66498,131.96502 c -2.202,0 -4.705,0.801 -6.907,2.803 1.501,-1.902 3.504,-2.803 5.406,-3.904 2.803,-1.702 2.803,-5.306 4.605,-7.608 1.701,-2.203 3.703,-3.604 5.606,-6.007 0.6,-0.801 0.6,-2.803 1.501,-4.004 -0.801,1.501 -0.701,2.903 0,4.405 -4.805,3.503 -8.409,8.208 -10.211,14.315 z"
     clip-rule="evenodd"
     fill-rule="evenodd" />
  <path
     id="path102"
     fill="#ffffff"
     d="m 109.45698,159.19402 c 2.502,-0.3 5.305,-0.3 8.308,0.1 1.502,5.806 4.906,10.311 9.911,13.314 v 0.101 c -4.905,-2.203 -9.01,-5.707 -11.012,-10.712 -0.901,-2.403 -4.404,-1.902 -7.207,-2.803 z"
     clip-rule="evenodd"
     fill-rule="evenodd" />
  <path
     id="path104"
     fill="#ec1c24"
     d="m 96.542978,235.07502 c 0,4.205 0,8.209 0,12.414 1.802,0.8 3.704002,1.501 5.606002,2.202 0,-2.102 0,-4.205 0,-6.207 1.001,0.401 1.902,0.701 2.903,1.101 0,5.406 0,11.012 0,16.418 -1.201,-0.4 -2.402,-0.801 -3.504,-1.201 0,1.902 0,4.004 0,6.006 5.006,1.702 10.011,3.104 14.916,4.205 0,-1.902 0,-3.904 0,-5.706 -1.101,-0.301 -2.402,-0.601 -3.503,-0.801 0,-5.406 0,-10.712 0,-16.117 1.001,0.3 1.902,0.6 2.903,0.8 0,2.103 0,4.005 0,6.107 1.802,0.4 3.704,0.801 5.606,1.201 0,-3.904 0,-7.808 0,-11.712 -8.409,-2.403 -16.618,-5.206 -24.927002,-8.71 z m 40.543002,20.322 c -1.001,-3.203 -2.102,-6.507 -3.103,-9.71 -2.903,-0.401 -5.806,-0.801 -8.909,-1.202 0,1.902 0,3.704 0,5.707 1.001,0.1 1.801,0.3 2.803,0.4 1.801,4.705 3.703,9.61 5.606,14.315 -0.301,0.701 -0.601,1.402 -0.801,2.103 -1.402,-0.101 -2.603,-0.301 -4.005,-0.401 0,1.902 0,3.704 0,5.706 3.304,0.401 6.507,0.701 9.911,1.001 2.503,-6.907 5.005,-13.915 7.608,-20.822 0.801,0 1.802,0 2.603,0 0,-1.802 0,-3.704 0,-5.606 -2.903,0 -5.706,-0.1 -8.609,-0.3 -0.801,2.703 -1.902,5.806 -3.104,8.809 0.201,0 0,0 0,0 z m 16.818,-3.303 c 0,-1.802 0,-3.704 0,-5.606 7.108,-0.301 13.315,-1.002 20.422,-1.903 0,1.903 0,3.704 0,5.707 -0.701,0.1 -1.201,0.3 -1.902,0.3 0,5.306 0,10.611 0,15.817 0.701,-0.1 1.201,-0.1 1.902,-0.3 0,1.902 0,3.703 0,5.706 -3.203,0.4 -6.507,0.801 -9.71,1.101 0,-7.108 0,-14.215 0,-21.223 -0.401,0 0,0.1 -0.3,0.1 -2.203,7.108 -4.205,14.316 -6.407,21.523 -4.305,0.301 -1.802,0.1 -5.306,0.301 -1.802,0 -3.504,0 -5.306,0 0,-1.802 0,-3.704 0,-5.606 1.502,0 2.903,0 4.405,0 1.702,-5.306 3.203,-10.412 4.905,-15.717 -0.801,-0.2 -1.702,-0.2 -2.703,-0.2 z m 27.029,12.813 c -1.001,0.1 -1.902,0.401 -2.903,0.601 0,1.902 0,3.704 0,5.706 3.204,-0.601 6.507,-1.201 9.711,-1.902 0.3,-2.403 0.7,-4.705 1.001,-6.907 1.701,-0.401 3.203,-1.001 4.905,-1.402 0.3,2.202 0.701,4.305 1.001,6.507 3.203,-1.001 6.507,-2.102 9.71,-3.304 0,-1.902 0,-4.004 0,-6.006 -1.001,0.4 -1.902,0.701 -2.803,1.101 -1.001,-5.105 -1.902,-10.311 -2.903,-15.416 0.701,-0.301 1.502,-0.601 2.203,-0.801 0,-1.902 0,-3.904 0,-6.007 -6.407,2.503 -12.614,4.605 -19.021,6.407 0,1.902 0,3.905 0,5.706 0.701,-0.1 1.502,-0.4 2.203,-0.6 -1.202,5.205 -2.103,10.711 -3.104,16.317 z m 12.113,-8.809 c -1.201,0.4 -2.502,0.701 -3.604,1.101 0.601,-4.004 1.202,-8.209 1.802,-12.213 0.501,3.604 1.102,7.408 1.802,11.112 z" />
  <path
     id="path106"
     fill="#fff100"
     d="m 200.65398,27.553215 -3.503,7.9084 h -0.1 v -7.9084 h -6.507 v 3.6038 h 1.802 v 10.3111 h -1.802 v 3.7039 h 6.707 v -6.8072 h 2.603 v 6.8072 h 6.707 v -3.7039 h -1.902 v -6.2067 h -2.603 l 1.802,-4.0043 h 2.202 v -3.6038 z m -104.712002,3.9042 h 1.802 v 10.311 h -1.802 v 3.6039 h 6.708002 v -13.9149 h 2.502 v 13.9149 h 6.707 v -3.704 h -1.902 v -10.2109 h 1.802 v -3.6039 H 95.941978 Z m 64.369002,-1.9021 c 0,-2.1022 -1.802,-2.6028 -3.604,-2.6028 h -3.503 v -1.7018 h 2.402 v -3.7039 h -9.61 v 3.6038 h 2.503 v 1.7018 h -3.504 c -1.902,0 -3.604,0.6007 -3.604,2.6028 l -0.1,9.0097 c 0,2.5026 1.401,3.3035 3.904,3.3035 h 3.304 v 1.8019 h -2.503 v 3.704 h 9.61 v -3.704 h -2.402 v -1.8019 h 3.303 c 2.403,0 3.904,-0.8009 3.904,-3.3035 z m -4.705,8.7093 h -2.402 v -8.5091 h 2.402 z m -7.107,0 h -2.503 v -8.5091 h 2.403 v 8.5091 z" />
  <path
     id="path108"
     fill="#ec1c24"
     d="m 69.113378,75.004015 3.0033,0.1 -5.606,21.723 -9.4101,0.801 z" />
  <path
     id="path110"
     fill="#231f20"
     d="m 70.515178,76.406015 -5.1055,19.12 -5.8062,0.601 10.2109,-19.721 z" />
  <path
     id="path112"
     fill="#ec1c24"
     d="m 101.24798,72.100815 -5.106002,0.1001 -2.102,12.0131 5.606,-0.501 z" />
  <path
     id="path114"
     fill="#231f20"
     d="m 98.444978,82.512015 -2.703,0.1 1.501,-9.009 2.503,-0.101 z" />
  <path
     id="path116"
     fill="#ec1c24"
     d="m 208.06198,87.117015 -5.206,-0.2 0.701,-11.813 3.404,0.2 z" />
  <path
     id="path118"
     fill="#231f20"
     d="m 204.25798,85.715015 h 2.203 l -0.801,-9.209 h -0.801 z" />
</svg>
